<svg xmlns="http://www.w3.org/2000/svg" viewBox="0 0 234 404.25"><defs><style>.cls-1{fill:#fff;}</style></defs><g id="Слой_2" data-name="Слой 2"><g id="Слой_1-2" data-name="Слой 1"><path d="M113.4,1.15c-4.1,2.6-25.9,22.8-46.9,43.7L48.4,62.75l-8.1,22c-7.2,19.3-27.2,72.4-36.9,97.8C1.5,187.35,0,192,0,192.75s5.6,8.9,12.5,17.9l12.4,16.5-7,15.3c-10.4,22.5-13,29.4-12.3,32.6,1.3,5.2,9.5,24.6,13.6,32.1,6.8,12.3,16.2,26.1,17.1,25.1.2-.3,2-2.9,3.9-5.8l3.5-5.2,8.9,6.7c9.3,7,21,14.3,23.1,14.3.6,0,1.3-1.4,1.5-3l.3-3,7.9,5c14,9,23.9,20.7,29.3,34.8,2.2,5.7,2.7,8.4,2.7,17.4.1,7.3.5,10.8,1.2,10.8,1.7,0,16.1-14.4,24.7-24.8,6.8-8.2,19.5-24.4,35.7-45.6,9.6-12.6,11.1-14.1,12.1-12.5a6.93,6.93,0,0,1,.9,3.1c0,3.2,1.8,1.9,6.7-5,7.1-9.8,14.8-23.2,25.7-44.5l9.6-18.7-2.6-6.8c-8.8-23.2-13.3-36.5-12.7-37.5a58.12,58.12,0,0,1,4.3-5.7c2-2.5,5.1-6.6,6.9-9.2l3.4-4.7-2.8-6.8c-4.4-11-33.1-87.3-39.7-105.6l-6.1-16.8-19.1-18.8c-22-21.6-37.8-36.8-42.1-40.3C118.1-.45,116.7-.85,113.4,1.15Z"/><path class="cls-1" d="M169.8,187.65c.2.3.1,2.7-.3,5.5a35.07,35.07,0,0,1-3.8,10.3c-4.2,7-9.3,9.6-20.6,10.5-8.3.6-8.3.6-7.2-1.5,1.6-3,6-5,9.7-4.5,2.7.4,3.3.1,4.7-3a15.61,15.61,0,0,0,1.7-4.6C154,199.15,169.1,187,169.8,187.65Z"/><path class="cls-1" d="M96.5,214.25H91a68,68,0,0,1-11.5-1.4c-5-1.2-6.7-2.2-10.1-5.9-2.2-2.5-4.6-6.3-5.2-8.4-1.2-4.2-1.6-10.3-.6-10.3a87.77,87.77,0,0,1,7.6,5.2c5.5,4.2,7.5,6.4,9.3,10.3,2.1,4.9,2.3,5,6.3,5a8.27,8.27,0,0,1,6.9,2.8Z"/><path class="cls-1" d="M42.3,250.75c4.7,5.8,20.7,31.2,26.8,42.5,2.9,5.5,5.4,9.8,5.6,9.7s-2.2-13.3-5.2-29.2-5.4-29.6-5.2-30.5,1.4.6,3,3.6c2.4,4.7,19.8,31.7,21.8,33.8.5.6-1.1-3.9-3.4-10s-6.1-15.8-8.2-21.8a89.87,89.87,0,0,0-8.3-17.5c-4.8-7.2-8.2-13.4-8.2-15.1,0-.6,3.1.5,6.9,2.4a55.51,55.51,0,0,0,24.8,5.6c2.8,0,5.5-.5,5.9-1.1s3-2.2,5.9-3.4c3.9-1.8,6-3.5,8.1-6.9a23.44,23.44,0,0,1,3.5-4.6c.3,0,1.9,1.9,3.6,4.3a19.36,19.36,0,0,0,7.7,6.5c2.6,1.3,4.9,2.9,5.2,3.7,1.4,3.5,20.7,1,31.1-4,3.9-1.9,7.4-3.5,7.7-3.5,1.3,0-2.2,7.2-7.2,14.9-4,6.1-7,12.6-11.2,24.5-3.2,8.8-6.6,17.8-7.5,20s-1.4,4-1.2,4.2c.3.4,13.7-19.8,21.2-32.1l3.6-6-.6,4.5c-.4,2.5-2.9,15.6-5.6,29.2S158,300,158,301s2.4-2.6,5.3-7.9a352.53,352.53,0,0,1,26.5-41.6c16.8-23.1,22.6-30.3,23.3-28.9.4.6,3.4,8.5,6.8,17.5l6.1,16.3-11.6,22.7c-6.4,12.5-12,23.1-12.5,23.6s-.9-.9-1-4a50.91,50.91,0,0,0-.8-7.9c-.6-2.9-.7-2.9-6.3,5.5-5.4,8.2-8.8,13-24.7,36-9.7,13.9-27.4,38.4-31.8,44-4.1,5.2-12.2,14-12.8,14-.3,0-.5-1.7-.5-3.7,0-6-3-16.3-6.9-23.8-6.3-12.2-17.8-22.6-36.2-32.8-7.9-4.4-9.4-4.6-9.7-1-.4,4.5.2,4.7-14.1-7.2-1.3-1.1-6.9-8.1-12.4-15.4-11.6-15.5-11.3-15.5-11.9,1-.2,4.8-.6,8.5-1,8.1-2.9-3.1-18.8-38.7-18.8-42.1,0-2.7,15.5-37.6,16.6-37.6.4,0,2.7,2.5,5.1,5.5S40.5,248.55,42.3,250.75Z"/><path class="cls-1" d="M75.3,192.75c-8-5.8-30.9-24.1-31.7-25.3s10.2-18.2,19.3-29.7a259,259,0,0,1,20-21.7c11.2-10.7,28.3-24.8,30.2-24.8.5,0,3.3,1.7,6.1,3.7a296.71,296.71,0,0,1,49,43.8c8.6,9.6,21.1,27.1,20.6,28.6-.3.7-14.1,11.8-34.6,27.7-24.7,19.2-24.5,19.1-29.1,16.7-3.7-1.8-5.5-5.6-7.5-14.8-1.4-6.7-1.7-6.4-3.6,2.8-1.7,8-2.9,10.4-6.2,12.1-4,2.1-5.8,1.3-16.5-7C86.3,201,79.1,195.55,75.3,192.75Z"/><path class="cls-1" d="M22.5,151.25c10.2-27.4,20.1-53.6,25.8-68.5l6.2-16,22-22c21.9-21.9,37.4-36.5,38.7-36.5.4,0,0,2.1-.8,4.7-4.5,14.5-5.2,22-2.9,33.7,2.3,12.4,3.3,12.4,3.4.1.2-14,2.8-37.5,4.2-37.5,1,0,39.5,36.7,50,47.7,9.1,9.7,10.3,11.6,15.5,25.7,7.6,21,35.4,94.8,39.2,104.2l2,5.1-3.4,4.4c-1.9,2.4-12.8,16.9-24.1,32.2s-20.7,27.6-20.9,27.4c-.6-.5,4.5-13,8.7-21.2,2.3-4.4,7.6-15,12-23.5s7.9-16.1,7.9-16.9-2.3-7.5-5.1-14.9c-12.2-32.2-17.7-40.8-44.4-69.6-11.6-12.6-33.2-32.8-40.1-37.6l-4-2.8-4.8,4c-7.2,6.2-30.9,31.9-41.7,45.4-18.6,23.2-23.4,31.8-36,65.1-4.5,12-5.5,8.1,8.7,35.3,9.6,18.2,18,36.7,17.2,37.6-.3.2-5.7-6.7-12.1-15.4s-12.1-16.2-12.5-16.7-6.1-8-12.5-16.6L6.9,192.45l5.7-14.8C15.7,169.45,20.2,157.55,22.5,151.25Z"/><path d="M79.1,161c1.1,3.3,9.2,16.3,23.2,37.2,6,8.9,6.4,8.9,5.7.1-.4-5.3-10.6-20.2-20-29.5C82.9,163.75,78.9,160.25,79.1,161Z"/><path d="M143.4,170.15c-11.2,11.7-17.9,22.9-18.7,31.1-.6,5.4-.5,5.5,1.1,3,.9-1.3,4.6-6.5,8.2-11.5s8.7-13,11.5-18,5.9-10.2,6.9-11.8C155.7,158,152.6,160.45,143.4,170.15Z"/></g></g></svg>
